<svg xmlns="http://www.w3.org/2000/svg" viewBox="0 0 400 320" fill="none">
  <title>Server error</title>
  <ellipse cx="200" cy="280" rx="150" ry="12" fill="#4F6A42" opacity="0.10"/>
  <circle cx="200" cy="150" r="115" fill="#4F6A42" opacity="0.08"/>
  <rect x="120" y="80" width="160" height="50" rx="6" fill="#4F6A42" stroke="#263238" stroke-width="3"/>
  <rect x="120" y="140" width="160" height="50" rx="6" fill="#3A4F32" stroke="#263238" stroke-width="3"/>
  <rect x="120" y="200" width="160" height="50" rx="6" fill="#4F6A42" stroke="#263238" stroke-width="3"/>
  <g fill="#FFFFFF">
    <circle cx="140" cy="105" r="4"/>
    <circle cx="140" cy="165" r="4"/>
    <circle cx="140" cy="225" r="4"/>
  </g>
  <g fill="#A8BC97">
    <rect x="156" y="100" width="48" height="4" rx="2"/>
    <rect x="156" y="112" width="36" height="4" rx="2"/>
    <rect x="156" y="160" width="48" height="4" rx="2"/>
    <rect x="156" y="172" width="36" height="4" rx="2"/>
    <rect x="156" y="220" width="48" height="4" rx="2"/>
    <rect x="156" y="232" width="36" height="4" rx="2"/>
  </g>
  <g fill="#B57850">
    <circle cx="252" cy="105" r="6"/>
    <circle cx="252" cy="225" r="6"/>
  </g>
  <circle cx="252" cy="165" r="8" fill="#FFFFFF" stroke="#B57850" stroke-width="3"/>
  <text x="252" y="170" text-anchor="middle" font-family="monospace" font-size="11" font-weight="700" fill="#B57850">!</text>
  <g stroke="#B57850" stroke-width="3" stroke-linecap="round">
    <line x1="48" y1="100" x2="68" y2="120"/>
    <line x1="68" y1="100" x2="48" y2="120"/>
    <line x1="332" y1="100" x2="352" y2="120"/>
    <line x1="352" y1="100" x2="332" y2="120"/>
  </g>
</svg>
