<svg xmlns="http://www.w3.org/2000/svg" viewBox="0 0 400 320" fill="none">
  <title>Verification pending</title>
  <ellipse cx="200" cy="280" rx="150" ry="12" fill="#4F6A42" opacity="0.10"/>
  <circle cx="200" cy="150" r="115" fill="#4F6A42" opacity="0.08"/>
  <rect x="116" y="70" width="168" height="180" rx="8" fill="#FFFFFF" stroke="#263238" stroke-width="3"/>
  <rect x="116" y="70" width="168" height="32" rx="8" fill="#4F6A42"/>
  <rect x="116" y="92" width="168" height="10" fill="#4F6A42"/>
  <rect x="134" y="120" width="100" height="6" rx="3" fill="#C9D6BC"/>
  <rect x="134" y="136" width="132" height="6" rx="3" fill="#E2E9DA"/>
  <rect x="134" y="152" width="80" height="6" rx="3" fill="#E2E9DA"/>
  <rect x="134" y="174" width="132" height="6" rx="3" fill="#E2E9DA"/>
  <rect x="134" y="190" width="100" height="6" rx="3" fill="#E2E9DA"/>
  <rect x="134" y="206" width="120" height="6" rx="3" fill="#E2E9DA"/>
  <circle cx="280" cy="220" r="32" fill="#FFFFFF" stroke="#263238" stroke-width="3"/>
  <circle cx="280" cy="220" r="22" fill="#4F6A42"/>
  <line x1="280" y1="220" x2="280" y2="206" stroke="#FFFFFF" stroke-width="3" stroke-linecap="round"/>
  <line x1="280" y1="220" x2="292" y2="226" stroke="#FFFFFF" stroke-width="3" stroke-linecap="round"/>
  <g stroke="#4F6A42" stroke-width="2.5" stroke-linecap="round" fill="none">
    <path d="M252 168 a32 32 0 0 1 12 -8"/>
    <path d="M308 168 a32 32 0 0 0 -12 -8"/>
  </g>
  <circle cx="80" cy="120" r="5" fill="#A8BC97"/>
  <circle cx="60" cy="200" r="4" fill="#A8BC97"/>
</svg>
